<svg width="657" height="502" viewBox="0 0 657 502" fill="none" xmlns="http://www.w3.org/2000/svg">
<path d="M196.931 207.822V328.552H443.969V193.783H210.97C203.229 193.783 196.931 200.081 196.931 207.822Z" fill="#5B269A"/>
<path d="M509.503 133.194C509.503 130.463 507.29 128.25 504.56 128.25H210.972C167.025 128.25 131.4 163.876 131.4 207.822V389.141C131.4 391.871 133.613 394.084 136.343 394.084H504.56C507.29 394.084 509.503 391.871 509.503 389.141V133.194ZM468.94 348.578C468.94 351.308 466.727 353.521 463.997 353.521H176.906C174.176 353.521 171.963 351.308 171.963 348.578V207.822C171.963 186.312 189.461 168.814 210.971 168.814H463.997C466.727 168.814 468.94 171.027 468.94 173.757V348.578Z" fill="#5B269A"/>
<path d="M241.89 246.563H229.038L226.586 252.495H220.021L232.359 224.813H238.687L251.064 252.495H244.342L241.89 246.563ZM239.873 241.699L235.484 231.101L231.094 241.699H239.873ZM277.712 231.219V252.495H271.86V249.964C271.042 250.887 270.067 251.598 268.933 252.099C267.8 252.574 266.574 252.811 265.255 252.811C262.461 252.811 260.246 252.007 258.612 250.399C256.977 248.791 256.16 246.405 256.16 243.241V231.219H262.329V242.332C262.329 245.759 263.766 247.473 266.64 247.473C268.116 247.473 269.302 246.998 270.199 246.049C271.095 245.073 271.543 243.637 271.543 241.738V231.219H277.712ZM300.313 251.467C299.707 251.915 298.955 252.257 298.059 252.495C297.189 252.706 296.266 252.811 295.291 252.811C292.76 252.811 290.796 252.165 289.399 250.873C288.028 249.582 287.342 247.683 287.342 245.179V236.439H284.06V231.694H287.342V226.514H293.511V231.694H298.81V236.439H293.511V245.1C293.511 245.996 293.736 246.695 294.184 247.196C294.658 247.67 295.317 247.908 296.161 247.908C297.136 247.908 297.967 247.644 298.652 247.117L300.313 251.467ZM316.407 252.811C314.166 252.811 312.149 252.35 310.356 251.427C308.59 250.478 307.206 249.173 306.204 247.512C305.202 245.851 304.701 243.966 304.701 241.857C304.701 239.748 305.202 237.863 306.204 236.202C307.206 234.541 308.59 233.249 310.356 232.327C312.149 231.378 314.166 230.903 316.407 230.903C318.648 230.903 320.651 231.378 322.418 232.327C324.184 233.249 325.568 234.541 326.57 236.202C327.572 237.863 328.073 239.748 328.073 241.857C328.073 243.966 327.572 245.851 326.57 247.512C325.568 249.173 324.184 250.478 322.418 251.427C320.651 252.35 318.648 252.811 316.407 252.811ZM316.407 247.749C317.989 247.749 319.28 247.222 320.282 246.168C321.31 245.087 321.825 243.65 321.825 241.857C321.825 240.064 321.31 238.641 320.282 237.586C319.28 236.505 317.989 235.965 316.407 235.965C314.825 235.965 313.52 236.505 312.492 237.586C311.464 238.641 310.95 240.064 310.95 241.857C310.95 243.65 311.464 245.087 312.492 246.168C313.52 247.222 314.825 247.749 316.407 247.749ZM235.958 300.969C232.004 300.969 228.919 299.875 226.705 297.687C224.516 295.499 223.422 292.375 223.422 288.315V272.813H229.829V288.078C229.829 293.034 231.885 295.512 235.998 295.512C238.001 295.512 239.53 294.919 240.585 293.733C241.639 292.52 242.167 290.635 242.167 288.078V272.813H248.494V288.315C248.494 292.375 247.387 295.499 245.172 297.687C242.984 299.875 239.913 300.969 235.958 300.969ZM270.484 278.903C273.121 278.903 275.243 279.694 276.851 281.276C278.486 282.858 279.303 285.204 279.303 288.315V300.495H273.134V289.264C273.134 287.577 272.765 286.324 272.027 285.507C271.289 284.664 270.221 284.242 268.824 284.242C267.268 284.242 266.029 284.729 265.106 285.705C264.184 286.654 263.722 288.078 263.722 289.976V300.495H257.553V279.219H263.445V281.711C264.263 280.814 265.278 280.129 266.49 279.654C267.703 279.154 269.034 278.903 270.484 278.903ZM288.059 279.219H294.228V300.495H288.059V279.219ZM291.143 276.254C290.009 276.254 289.087 275.924 288.375 275.265C287.663 274.606 287.307 273.789 287.307 272.813C287.307 271.838 287.663 271.02 288.375 270.361C289.087 269.702 290.009 269.373 291.143 269.373C292.277 269.373 293.199 269.689 293.911 270.322C294.623 270.955 294.979 271.745 294.979 272.695C294.979 273.723 294.623 274.579 293.911 275.265C293.199 275.924 292.277 276.254 291.143 276.254ZM324.234 279.219L315.257 300.495H308.89L299.953 279.219H306.32L312.212 293.693L318.302 279.219H324.234ZM350.176 289.936C350.176 290.015 350.136 290.569 350.057 291.597H333.962C334.252 292.915 334.938 293.957 336.018 294.721C337.099 295.486 338.444 295.868 340.052 295.868C341.159 295.868 342.135 295.71 342.978 295.393C343.848 295.051 344.652 294.523 345.391 293.812L348.673 297.371C346.669 299.664 343.743 300.811 339.894 300.811C337.495 300.811 335.373 300.35 333.527 299.427C331.682 298.478 330.258 297.173 329.256 295.512C328.254 293.851 327.754 291.966 327.754 289.857C327.754 287.774 328.241 285.903 329.217 284.242C330.218 282.554 331.576 281.249 333.29 280.327C335.03 279.378 336.968 278.903 339.103 278.903C341.186 278.903 343.071 279.351 344.758 280.248C346.445 281.144 347.763 282.436 348.712 284.123C349.688 285.784 350.176 287.722 350.176 289.936ZM339.143 283.569C337.745 283.569 336.572 283.965 335.623 284.756C334.674 285.547 334.094 286.628 333.883 287.998H344.362C344.152 286.654 343.572 285.586 342.622 284.795C341.673 283.978 340.513 283.569 339.143 283.569ZM363.339 282.027C364.077 280.999 365.065 280.221 366.304 279.694C367.57 279.167 369.02 278.903 370.654 278.903V284.598C369.969 284.545 369.508 284.519 369.27 284.519C367.504 284.519 366.12 285.019 365.118 286.021C364.116 286.997 363.615 288.473 363.615 290.45V300.495H357.446V279.219H363.339V282.027ZM384.721 300.811C382.955 300.811 381.228 300.6 379.541 300.178C377.853 299.73 376.509 299.177 375.507 298.517L377.563 294.088C378.512 294.695 379.659 295.196 381.004 295.591C382.348 295.96 383.667 296.145 384.958 296.145C387.568 296.145 388.873 295.499 388.873 294.207C388.873 293.601 388.517 293.166 387.806 292.902C387.094 292.638 386 292.414 384.523 292.23C382.783 291.966 381.347 291.663 380.213 291.32C379.079 290.978 378.091 290.371 377.247 289.501C376.43 288.631 376.021 287.392 376.021 285.784C376.021 284.439 376.403 283.253 377.168 282.225C377.959 281.17 379.092 280.353 380.569 279.773C382.072 279.193 383.838 278.903 385.868 278.903C387.371 278.903 388.86 279.074 390.336 279.417C391.839 279.734 393.078 280.182 394.054 280.762L391.997 285.151C390.126 284.097 388.082 283.569 385.868 283.569C384.55 283.569 383.561 283.754 382.902 284.123C382.243 284.492 381.913 284.967 381.913 285.547C381.913 286.206 382.269 286.667 382.981 286.931C383.693 287.194 384.827 287.445 386.382 287.682C388.122 287.972 389.546 288.288 390.653 288.631C391.76 288.948 392.722 289.541 393.54 290.411C394.357 291.281 394.766 292.493 394.766 294.049C394.766 295.367 394.37 296.54 393.579 297.568C392.788 298.597 391.628 299.401 390.099 299.981C388.597 300.534 386.804 300.811 384.721 300.811ZM422.576 289.936C422.576 290.015 422.536 290.569 422.457 291.597H406.362C406.652 292.915 407.338 293.957 408.419 294.721C409.499 295.486 410.844 295.868 412.452 295.868C413.559 295.868 414.535 295.71 415.378 295.393C416.248 295.051 417.053 294.523 417.791 293.812L421.073 297.371C419.069 299.664 416.143 300.811 412.294 300.811C409.895 300.811 407.773 300.35 405.927 299.427C404.082 298.478 402.658 297.173 401.656 295.512C400.654 293.851 400.154 291.966 400.154 289.857C400.154 287.774 400.641 285.903 401.617 284.242C402.619 282.554 403.976 281.249 405.69 280.327C407.43 279.378 409.368 278.903 411.503 278.903C413.586 278.903 415.471 279.351 417.158 280.248C418.845 281.144 420.163 282.436 421.112 284.123C422.088 285.784 422.576 287.722 422.576 289.936ZM411.543 283.569C410.145 283.569 408.972 283.965 408.023 284.756C407.074 285.547 406.494 286.628 406.283 287.998H416.763C416.552 286.654 415.972 285.586 415.023 284.795C414.073 283.978 412.913 283.569 411.543 283.569Z" fill="white"/>
<path d="M473.565 89.9876C472.133 89.9519 470.756 90.5391 469.79 91.5971L454.712 108.12C451.855 111.25 454.003 116.288 458.24 116.394L512.727 117.753C515.456 117.821 517.613 120.088 517.545 122.818L514.723 236.003C514.609 240.575 520.232 242.837 523.316 239.458L552.707 207.251C553.509 206.372 553.968 205.232 553.997 204.042L556.667 97.0047C556.735 94.2755 554.578 92.0078 551.849 91.9398L473.565 89.9876Z" fill="#5B269A"/>
</svg>
